<?xml version="1.0" standalone="no"?>
<!DOCTYPE svg PUBLIC "-//W3C//DTD SVG 20010904//EN"
 "http://www.w3.org/TR/2001/REC-SVG-20010904/DTD/svg10.dtd">
<svg version="1.0" xmlns="http://www.w3.org/2000/svg"
 width="1280.000000pt" height="1042.000000pt" viewBox="0 0 1280.000000 1042.000000"
 preserveAspectRatio="xMidYMid meet">
<metadata>
Created by potrace 1.15, written by Peter Selinger 2001-2017
</metadata>
<g transform="translate(0.000000,1042.000000) scale(0.100000,-0.100000)"
fill="#000000" stroke="none">
<path d="M115 10402 c-105 -49 -143 -172 -84 -268 11 -18 319 -272 692 -572
369 -297 682 -548 694 -558 18 -15 141 -435 658 -2249 350 -1227 637 -2239
638 -2250 1 -12 -261 -393 -664 -965 -366 -520 -674 -960 -683 -977 -42 -82
-6 -196 76 -243 l43 -25 4690 0 c4670 0 4690 0 4730 20 49 25 95 88 102 143
11 85 -51 178 -134 201 -26 8 -1419 11 -4505 11 -2458 0 -4468 2 -4468 4 0 6
1097 1565 1118 1588 14 17 186 18 3247 20 l3231 3 37 25 c38 26 74 78 1423
2045 312 457 734 1071 936 1365 655 956 638 928 644 987 20 163 -177 265 -304
158 -15 -12 -65 -80 -112 -149 l-85 -126 -5047 0 c-2777 0 -5048 1 -5048 3 0
1 -36 128 -80 282 -53 186 -89 294 -107 322 -20 31 -225 201 -728 604 -385
309 -716 572 -736 586 -50 33 -122 39 -174 15z m2395 -2607 l0 -585 -88 0 -88
0 -163 573 c-90 314 -166 578 -168 585 -4 9 50 12 251 12 l256 0 0 -585z
m1490 0 l0 -585 -635 0 -635 0 0 585 0 585 635 0 635 0 0 -585z m1600 -5 l0
-590 -487 0 c-269 0 -579 3 -690 7 l-203 6 0 584 0 583 690 0 690 0 0 -590z
m1600 -7 l0 -596 -352 6 c-194 4 -507 7 -695 7 l-343 0 0 583 c0 321 3 587 7
590 3 4 316 7 695 7 l688 0 0 -597z m1720 2 l0 -595 -750 2 -750 3 0 588 c0
323 0 589 0 592 0 3 338 5 750 5 l750 0 0 -595z m1710 -5 l0 -600 -583 0
c-321 0 -659 3 -750 7 l-167 6 0 594 0 593 750 0 750 0 0 -600z m1247 588 c-4
-11 -540 -796 -750 -1100 l-61 -88 -108 0 -108 0 0 600 0 600 516 0 c409 0
515 -3 511 -12z m-9368 -1565 c0 -115 -4 -187 -9 -173 -19 61 -100 351 -100
360 0 5 25 10 55 10 l55 0 -1 -197z m1323 187 l168 0 0 -500 0 -500 -635 0
-635 0 0 507 0 506 467 -6 c256 -4 542 -7 635 -7z m1768 -500 l0 -500 -690 0
-690 0 0 500 0 500 690 0 690 0 0 -500z m1600 -5 l0 -495 -695 0 -695 0 0 493
c0 272 2 496 4 498 2 2 315 3 695 1 l691 -2 0 -495z m1203 488 l517 -6 0 -489
0 -488 -752 0 -753 0 2 492 c2 271 3 494 3 496 0 4 456 2 983 -5z m2227 -216
l0 -213 -187 -277 -188 -276 -562 -1 -563 0 0 490 0 490 750 0 750 0 0 -213z
m280 196 c0 -5 -14 -26 -30 -47 l-30 -40 0 47 c0 46 1 47 30 47 17 0 30 -3 30
-7z m-6910 -1743 l0 -560 -468 0 -468 0 -157 553 c-87 303 -158 555 -157 560
0 4 281 7 625 7 l625 0 0 -560z m1600 0 l0 -560 -690 0 -690 0 0 560 0 560
690 0 690 0 0 -560z m1600 0 l0 -560 -695 0 -695 0 0 560 0 560 695 0 695 0 0
-560z m1720 0 l0 -560 -750 2 -750 3 -3 558 -2 557 753 0 752 0 0 -560z m1117
468 c-92 -134 -581 -848 -647 -945 l-55 -82 -102 -1 -103 0 0 560 0 560 486 0
485 0 -64 -92z"/>
<path d="M2690 1931 c-179 -39 -287 -98 -421 -231 -84 -84 -101 -107 -147
-200 -72 -148 -86 -207 -86 -370 -1 -157 13 -216 78 -355 79 -168 203 -293
371 -375 144 -70 203 -84 365 -84 118 0 146 4 223 27 236 73 408 219 512 438
79 167 100 373 56 544 -43 167 -153 341 -279 441 -70 56 -235 137 -322 158
-104 26 -250 29 -350 7z"/>
<path d="M8735 1936 c-400 -79 -676 -408 -675 -808 1 -373 240 -684 606 -790
112 -32 304 -32 418 0 267 76 472 266 561 519 36 105 48 193 42 317 -13 288
-171 537 -427 675 -156 83 -366 118 -525 87z"/>
</g>
</svg>
